<svg width="120" height="120" viewBox="0 0 120 120" fill="none" xmlns="http://www.w3.org/2000/svg">
<circle cx="60" cy="60" r="57" stroke="black" stroke-width="6"/>
<circle cx="59.5" cy="60.5" r="7.5" fill="black"/>
<path d="M80 56.5H76.5V63.5H80V56.5ZM108 63.5C109.933 63.5 111.5 61.933 111.5 60C111.5 58.067 109.933 56.5 108 56.5V63.5ZM80 63.5H108V56.5H80V63.5Z" fill="black"/>
<path d="M40 63.5H43.5V56.5H40V63.5ZM13 56.5C11.067 56.5 9.5 58.067 9.5 60C9.5 61.933 11.067 63.5 13 63.5V56.5ZM40 56.5H13V63.5H40V56.5Z" fill="black"/>
<path d="M99 81L21 81" stroke="black" stroke-width="7" stroke-linecap="round"/>
<path d="M99 40L21 40" stroke="black" stroke-width="7" stroke-linecap="round"/>
</svg>
