<svg width="43" height="41" viewBox="0 0 43 41" fill="none" xmlns="http://www.w3.org/2000/svg">
<path fill-rule="evenodd" clip-rule="evenodd" d="M24.3512 23.6803C19.8967 28.5875 12.3076 28.9545 7.40039 24.5C2.49322 20.0455 2.12624 12.4564 6.58071 7.54924C11.0352 2.64207 18.6243 2.27509 23.5315 6.72956C28.4386 11.184 28.8056 18.7731 24.3512 23.6803ZM25.1302 27.0889C19.4736 31.8654 11.0158 31.8336 5.38401 26.7213C-0.749955 21.1532 -1.20869 11.6668 4.3594 5.53286C9.9275 -0.601105 19.4139 -1.05984 25.5478 4.50825C31.1798 9.62061 32.0274 18.0361 27.8187 24.1271L27.9164 24.2158L41.9847 36.9863C42.8026 37.7287 42.8637 38.9935 42.1213 39.8114C41.3789 40.6293 40.1141 40.6904 39.2962 39.948L25.2279 27.1776L25.1302 27.0889Z" fill="black"/>
</svg>
