<svg width="785" height="785" viewBox="0 0 785 785" fill="none" xmlns="http://www.w3.org/2000/svg">
<g filter="url(#filter0_d_5_425)">
<circle cx="392.5" cy="392.5" r="352.5" fill="#CC1212"/>
<circle cx="392.5" cy="392.5" r="339.5" stroke="black" stroke-width="26"/>
</g>
<path d="M720.587 395.573C718.974 577.065 570.763 722.888 389.547 721.278C208.332 719.668 62.7344 571.234 64.3469 389.743C64.3469 389.743 107.387 506.332 389.55 506.328C653.972 506.325 720.587 395.573 720.587 395.573Z" fill="white"/>
<path d="M449 493.5C570.759 489.773 628.59 478.27 731 403.5" stroke="black" stroke-width="40"/>
<path d="M336 493.5C214.241 489.773 156.41 478.27 54 403.5" stroke="black" stroke-width="40"/>
<circle cx="393.5" cy="494.5" r="75.7546" fill="white"/>
<circle cx="393.5" cy="494.5" r="75.7546" stroke="black" stroke-width="21.4907"/>
<circle cx="393.5" cy="494.5" r="75.7546" stroke="black" stroke-opacity="0.2" stroke-width="21.4907"/>
<circle cx="393.218" cy="494.218" r="49.1656" stroke="black" stroke-width="5.70036"/>
<defs>
<filter id="filter0_d_5_425" x="0" y="0" width="785" height="785" filterUnits="userSpaceOnUse" color-interpolation-filters="sRGB">
<feFlood flood-opacity="0" result="BackgroundImageFix"/>
<feColorMatrix in="SourceAlpha" type="matrix" values="0 0 0 0 0 0 0 0 0 0 0 0 0 0 0 0 0 0 127 0" result="hardAlpha"/>
<feMorphology radius="20" operator="dilate" in="SourceAlpha" result="effect1_dropShadow_5_425"/>
<feOffset/>
<feGaussianBlur stdDeviation="10"/>
<feComposite in2="hardAlpha" operator="out"/>
<feColorMatrix type="matrix" values="0 0 0 0 0 0 0 0 0 0 0 0 0 0 0 0 0 0 0.3 0"/>
<feBlend mode="normal" in2="BackgroundImageFix" result="effect1_dropShadow_5_425"/>
<feBlend mode="normal" in="SourceGraphic" in2="effect1_dropShadow_5_425" result="shape"/>
</filter>
</defs>
</svg>
